<?xml version="1.0" encoding="utf-8"?>
<!-- Generator: Adobe Illustrator 19.1.0, SVG Export Plug-In . SVG Version: 6.00 Build 0)  -->
<svg version="1.1" id="Слой_3" xmlns="http://www.w3.org/2000/svg" xmlns:xlink="http://www.w3.org/1999/xlink" x="0px" y="0px"
	 viewBox="0 0 128 128" enable-background="new 0 0 128 128" xml:space="preserve">
<g>
	<path fill="#3498db" d="M107.842,11.025L73.559,45.307l1.566,1.566c0.349,1.099,1.043,2.244,2.046,3.248
		c1.003,1.002,2.149,1.697,3.247,2.045l1.352,1.353l34.301-34.3l0,0c1.493-1.494,1.016-4.36-1.31-6.687
		C112.433,10.205,109.335,9.531,107.842,11.025z"/>
	<path fill="#2c3e50" d="M81.77,55.519L81.77,55.519c-0.531,0-1.04-0.211-1.415-0.586l-1.03-1.031
		c-1.278-0.491-2.502-1.301-3.567-2.366c-1.065-1.066-1.875-2.29-2.367-3.569l-1.245-1.245c-0.375-0.375-0.586-0.884-0.586-1.415
		c0-0.53,0.211-1.039,0.586-1.414l34.283-34.282c0.902-0.903,2.126-1.38,3.539-1.38c2.079,0,4.399,1.08,6.207,2.888
		c3.085,3.085,3.648,7.175,1.312,9.514l-34.302,34.3C82.809,55.308,82.3,55.519,81.77,55.519z M76.388,45.307l0.151,0.151
		c0.227,0.227,0.396,0.504,0.492,0.81c0.265,0.835,0.817,1.701,1.555,2.439c0.736,0.736,1.603,1.288,2.436,1.552
		c0.277,0.088,0.533,0.235,0.747,0.432l32.888-32.886c0.602-0.603,0.212-2.335-1.311-3.858c-1.267-1.267-2.611-1.716-3.379-1.716
		c-0.23,0-0.538,0.036-0.711,0.208L76.388,45.307z"/>
	<path fill="#3498db" d="M84.594,9.228l-6.507,6.507l5.831,5.833c1.534,3.856,4.267,7.983,8.003,11.72
		c3.737,3.737,7.863,6.469,11.721,8.002l6.438,6.437l6.507-6.507l0,0c4.621-4.621,0.734-15.997-7.933-24.664
		C99.986,7.889,89.213,4.607,84.594,9.228z"/>
	<path fill="#2c3e50" d="M110.079,49.728c-0.512,0-1.023-0.195-1.414-0.585l-6.151-6.15c-4.158-1.725-8.301-4.583-12.007-8.289
		c-3.705-3.705-6.563-7.847-8.289-12.006l-5.545-5.547c-0.781-0.781-0.781-2.047,0-2.828l6.507-6.507
		c1.752-1.753,4.235-2.68,7.179-2.68c5.984,0,13.536,3.835,19.709,10.008c9.767,9.767,13.325,22.101,7.933,27.493l-6.507,6.507
		C111.103,49.533,110.591,49.728,110.079,49.728z M80.915,15.736l4.417,4.419c0.192,0.192,0.344,0.422,0.444,0.675
		c1.485,3.733,4.17,7.655,7.559,11.045c3.391,3.39,7.313,6.074,11.046,7.558c0.253,0.101,0.482,0.251,0.675,0.444l5.023,5.023
		l5.093-5.093c3.281-3.281,0.586-13.317-7.933-21.836c-5.368-5.368-11.994-8.836-16.881-8.836c-1.886,0-3.35,0.507-4.351,1.508
		L80.915,15.736z"/>
	
		<ellipse transform="matrix(0.7071 -0.7071 0.7071 0.7071 5.1418 75.8291)" fill="#3498db" cx="94.107" cy="31.708" rx="11.831" ry="22.622"/>
	<path fill="#2c3e50" d="M104.417,51.764c-6.055,0-13.753-3.938-20.091-10.276c-4.497-4.497-7.819-9.673-9.355-14.577
		c-1.675-5.346-1.062-9.826,1.726-12.613c1.732-1.731,4.186-2.646,7.099-2.646c6.055,0,13.754,3.938,20.092,10.275
		c4.497,4.497,7.819,9.674,9.355,14.577c1.675,5.347,1.063,9.826-1.726,12.613C109.786,50.849,107.331,51.764,104.417,51.764z
		 M83.795,15.652c-1.855,0-3.292,0.496-4.271,1.474c-1.658,1.658-1.927,4.789-0.736,8.589c1.346,4.299,4.317,8.896,8.366,12.944
		c5.53,5.53,12.307,9.104,17.263,9.104c1.856,0,3.293-0.496,4.271-1.474c1.658-1.658,1.927-4.789,0.736-8.589
		c-1.347-4.298-4.317-8.896-8.366-12.945C95.528,19.226,88.752,15.652,83.795,15.652z"/>
	<path fill="#3498db" d="M69.055,13.283l-8.842,8.843l7.927,7.927c2.083,5.242,5.797,10.85,10.874,15.927
		c5.077,5.078,10.686,8.791,15.928,10.875l8.747,8.748l8.843-8.843l0,0c6.279-6.281,1-21.739-10.778-33.518
		C89.974,11.462,75.335,7.002,69.055,13.283z"/>
	<path fill="#2c3e50" d="M103.689,67.602L103.689,67.602c-0.53,0-1.039-0.211-1.414-0.586l-8.459-8.459
		c-5.609-2.301-11.208-6.154-16.216-11.163c-5.01-5.01-8.862-10.608-11.162-16.215l-7.639-7.639c-0.781-0.781-0.781-2.047,0-2.828
		l8.842-8.843c2.246-2.246,5.445-3.433,9.25-3.433c7.948,0,18.017,5.131,26.276,13.391c12.991,12.991,17.826,29.296,10.778,36.346
		l-8.843,8.843C104.728,67.391,104.219,67.602,103.689,67.602z M63.041,22.126l6.513,6.513c0.192,0.192,0.344,0.422,0.444,0.675
		c2.051,5.16,5.755,10.576,10.43,15.252c4.674,4.674,10.091,8.379,15.252,10.43c0.254,0.101,0.483,0.251,0.676,0.444l7.333,7.333
		l7.429-7.428c5.302-5.304,0.266-19.645-10.778-30.69c-7.537-7.537-16.521-12.219-23.448-12.219c-2.761,0-4.922,0.761-6.422,2.261
		L63.041,22.126z"/>
	<path fill="#B8CBCD" d="M111.886,111.104c0,5.626-21.343,10.187-47.668,10.187c-26.326,0-47.667-4.561-47.667-10.187
		c0-5.626,21.674-9.771,48-9.771C90.876,101.334,111.886,105.478,111.886,111.104z"/>
	
		<ellipse transform="matrix(0.7071 -0.7071 0.7071 0.7071 -6.8471 70.864)" fill="#3498db" cx="82.117" cy="43.697" rx="16.079" ry="30.743"/>
	<path fill="#2c3e50" d="M96.13,70.234c-8.045,0-18.313-5.27-26.797-13.753C56.35,43.498,51.796,27.713,58.964,20.545
		c2.215-2.214,5.375-3.385,9.141-3.385c8.045,0,18.313,5.27,26.796,13.753c6.031,6.031,10.483,12.962,12.536,19.518
		c2.192,6.998,1.423,12.83-2.167,16.418C103.055,69.064,99.895,70.234,96.13,70.234z M68.105,21.16c-2.72,0-4.843,0.745-6.312,2.213
		c-5.396,5.396-0.647,19.262,10.369,30.279c7.644,7.643,17.052,12.582,23.969,12.582c2.719,0,4.843-0.745,6.312-2.213
		c2.485-2.485,2.903-6.887,1.179-12.395c-1.864-5.951-5.965-12.302-11.548-17.885C84.429,26.099,75.022,21.16,68.105,21.16z"/>
	<path fill="#3498db" d="M77.832,41.034L43.55,75.316l1.566,1.566c0.349,1.099,1.043,2.245,2.046,3.248
		c1.002,1.002,2.149,1.697,3.247,2.045l1.352,1.352l34.3-34.3l0,0c1.494-1.494,1.016-4.36-1.31-6.686
		C82.424,40.214,79.326,39.54,77.832,41.034z"/>
	<path fill="#2c3e50" d="M51.761,85.527c-0.53,0-1.039-0.211-1.414-0.586l-1.032-1.031c-1.279-0.492-2.504-1.303-3.567-2.366
		c-1.065-1.064-1.876-2.289-2.367-3.569l-1.245-1.245c-0.375-0.375-0.586-0.884-0.586-1.414c0-0.53,0.211-1.039,0.586-1.414
		L76.418,39.62c0.903-0.903,2.127-1.38,3.539-1.38c2.079,0,4.399,1.08,6.208,2.888c1.396,1.396,2.333,3.065,2.639,4.701
		c0.35,1.865-0.135,3.62-1.329,4.813l-34.3,34.299C52.8,85.316,52.291,85.527,51.761,85.527z M46.379,75.316l0.151,0.152
		c0.227,0.227,0.395,0.504,0.492,0.809c0.265,0.835,0.817,1.702,1.554,2.439c0.737,0.736,1.603,1.288,2.438,1.553
		c0.277,0.088,0.532,0.235,0.746,0.431l32.887-32.887c0.337-0.337,0.286-0.927,0.226-1.249c-0.159-0.851-0.705-1.778-1.535-2.609
		c-1.267-1.267-2.612-1.716-3.38-1.716c-0.229,0-0.538,0.036-0.711,0.208L46.379,75.316z"/>
	<path fill="#3498db" d="M23.112,59.225l-8.842,8.843l7.927,7.927c2.084,5.242,5.797,10.85,10.875,15.928
		c5.078,5.078,10.686,8.79,15.928,10.874l8.747,8.747l8.843-8.843l0,0c6.279-6.28,1.001-21.738-10.779-33.518
		C44.03,57.405,29.393,52.945,23.112,59.225z"/>
	<path fill="#2c3e50" d="M57.746,113.545c-0.53,0-1.039-0.211-1.414-0.586l-8.459-8.459c-5.609-2.302-11.208-6.155-16.215-11.162
		c-5.009-5.009-8.862-10.608-11.163-16.216l-7.639-7.639c-0.781-0.781-0.781-2.047,0-2.828l8.842-8.843
		c2.246-2.246,5.444-3.432,9.25-3.432c7.948,0,18.016,5.131,26.276,13.391c12.992,12.991,17.828,29.296,10.779,36.346l-8.843,8.843
		C58.785,113.334,58.276,113.545,57.746,113.545z M17.098,68.068l6.513,6.513c0.193,0.192,0.344,0.422,0.444,0.675
		c2.052,5.161,5.756,10.578,10.431,15.253c4.673,4.673,10.09,8.377,15.252,10.43c0.253,0.101,0.483,0.252,0.675,0.444l7.333,7.332
		l7.429-7.429c5.303-5.304,0.266-19.644-10.779-30.689c-7.537-7.537-16.522-12.219-23.448-12.219c-2.761,0-4.922,0.761-6.422,2.261
		L17.098,68.068z"/>
	
		<ellipse transform="matrix(0.7071 -0.7071 0.7071 0.7071 -52.3257 52.0295)" fill="#3498db" cx="36.64" cy="89.175" rx="16.079" ry="30.742"/>
	<path fill="#2c3e50" d="M50.652,115.712c-8.045,0-18.313-5.271-26.795-13.754c-6.031-6.03-10.483-12.962-12.537-19.518
		c-2.192-6.999-1.422-12.829,2.167-16.418c2.214-2.214,5.375-3.385,9.139-3.385c8.045,0,18.313,5.27,26.796,13.753
		c6.031,6.031,10.483,12.962,12.537,19.518c2.191,6.999,1.422,12.829-2.168,16.419C57.577,114.541,54.417,115.712,50.652,115.712z
		 M22.627,66.638c-2.719,0-4.842,0.745-6.311,2.213c-2.485,2.485-2.904,6.887-1.179,12.395c1.864,5.95,5.965,12.302,11.548,17.885
		c7.643,7.643,17.05,12.582,23.967,12.582c2.719,0,4.843-0.745,6.312-2.213c2.485-2.485,2.903-6.887,1.178-12.395
		c-1.864-5.951-5.965-12.302-11.547-17.885C38.951,71.576,29.544,66.638,22.627,66.638z"/>
	<path fill="#3498db" d="M18.129,75.694L11.621,82.2l5.833,5.833c1.534,3.858,4.266,7.984,8.002,11.72
		c3.736,3.736,7.863,6.469,11.721,8.002l6.436,6.437l6.508-6.506l0,0c4.621-4.621,0.735-15.996-7.933-24.664
		C33.522,74.354,22.749,71.073,18.129,75.694z"/>
	<path fill="#2c3e50" d="M43.613,116.192c-0.512,0-1.024-0.195-1.414-0.586l-6.15-6.15c-4.158-1.724-8.302-4.583-12.007-8.289
		c-3.706-3.705-6.564-7.848-8.289-12.006l-5.546-5.547C9.832,83.239,9.621,82.73,9.621,82.2c0-0.531,0.211-1.04,0.586-1.415
		l6.508-6.506c1.753-1.753,4.235-2.68,7.179-2.68c5.984,0,13.536,3.835,19.709,10.008c9.767,9.766,13.325,22.099,7.933,27.492
		l-6.508,6.507C44.636,115.997,44.125,116.192,43.613,116.192z M14.45,82.2l4.418,4.419c0.193,0.192,0.344,0.422,0.444,0.675
		c1.484,3.732,4.168,7.655,7.558,11.045c3.39,3.39,7.313,6.074,11.045,7.558c0.253,0.101,0.483,0.251,0.675,0.444l5.022,5.022
		l5.094-5.093c3.281-3.281,0.586-13.317-7.933-21.835c-5.368-5.368-11.994-8.837-16.88-8.837c-1.886,0-3.35,0.507-4.351,1.508
		L14.45,82.2z"/>
	
		<ellipse transform="matrix(0.7071 -0.7071 0.7071 0.7071 -61.3225 48.2996)" fill="#3498db" cx="27.642" cy="98.173" rx="11.831" ry="22.622"/>
	<path fill="#2c3e50" d="M37.953,118.228c-6.055,0-13.753-3.938-20.091-10.276c-4.497-4.497-7.82-9.673-9.355-14.577
		c-1.675-5.347-1.062-9.826,1.726-12.613c1.731-1.731,4.185-2.646,7.099-2.646c6.055,0,13.753,3.938,20.091,10.276
		c4.498,4.497,7.82,9.674,9.356,14.577c1.675,5.347,1.062,9.826-1.726,12.613C43.321,117.313,40.866,118.228,37.953,118.228z
		 M17.331,82.117c-1.856,0-3.293,0.496-4.271,1.474c-1.658,1.658-1.927,4.789-0.736,8.589c1.346,4.298,4.317,8.896,8.366,12.944
		c5.531,5.53,12.307,9.104,17.263,9.104c1.856,0,3.292-0.496,4.271-1.474c1.659-1.659,1.927-4.789,0.737-8.589
		c-1.347-4.298-4.318-8.896-8.367-12.945C29.063,85.69,22.287,82.117,17.331,82.117z"/>
	<path fill="#3498db" d="M22.346,96.52l-6.795,6.813l1.209,1.904c0.347,1.099,1.042,2.246,2.045,3.248
		c1.002,1.003,2.148,1.697,3.248,2.045l1.352,1.352l7.17-7.17l0,0c1.493-1.494,1.015-4.36-1.311-6.686
		C26.937,95.701,23.841,95.026,22.346,96.52z"/>
	<path fill="#2c3e50" d="M23.405,113.884c-0.512,0-1.024-0.195-1.414-0.586l-1.031-1.031c-1.279-0.491-2.504-1.301-3.569-2.366
		c-1.128-1.128-1.972-2.436-2.451-3.796l-1.078-1.699c-0.501-0.79-0.388-1.822,0.273-2.484l6.795-6.813
		c0.905-0.905,2.129-1.383,3.542-1.383c2.078,0,4.398,1.08,6.207,2.888c3.085,3.085,3.649,7.175,1.311,9.514l-7.17,7.17
		C24.428,113.688,23.917,113.884,23.405,113.884z M18.097,103.613l0.351,0.553c0.093,0.146,0.167,0.305,0.219,0.47
		c0.263,0.833,0.814,1.698,1.552,2.436c0.737,0.737,1.603,1.289,2.437,1.553c0.278,0.088,0.533,0.235,0.747,0.432l5.757-5.757
		c0.602-0.602,0.212-2.335-1.311-3.858c-1.267-1.267-2.612-1.716-3.378-1.716c-0.229,0-0.539,0.036-0.712,0.209L18.097,103.613z"/>
	
		<ellipse transform="matrix(0.7071 -0.7071 0.7071 0.7071 -69.8488 46.3568)" fill="#3498db" cx="21.032" cy="107.492" rx="3.573" ry="5.806"/>
	<path fill="#2c3e50" d="M23.209,114.314c-2.027,0-4.314-1.077-6.118-2.881c-1.354-1.354-2.312-2.985-2.695-4.593
		c-0.458-1.925-0.052-3.699,1.116-4.867c0.852-0.852,2.008-1.302,3.344-1.302c2.026,0,4.313,1.077,6.117,2.881
		c1.354,1.354,2.312,2.986,2.695,4.594c0.458,1.925,0.052,3.7-1.116,4.867C25.7,113.864,24.544,114.314,23.209,114.314z
		 M18.856,104.67c-0.241,0-0.434,0.049-0.516,0.131c-0.124,0.123-0.193,0.524-0.053,1.111c0.21,0.884,0.806,1.865,1.632,2.691
		c1.678,1.679,3.475,1.907,3.804,1.58c0.123-0.123,0.193-0.524,0.053-1.111c-0.211-0.884-0.806-1.866-1.632-2.692
		C20.883,105.118,19.585,104.67,18.856,104.67z"/>
	<path fill="#2c3e50" d="M90.359,7.134c4.323,0,9.81,2.294,14.952,6.422l2.531-2.531c0.538-0.538,1.282-0.794,2.125-0.794
		c1.498,0,3.303,0.812,4.793,2.302c2.326,2.326,2.804,5.192,1.31,6.687l-2.813,2.814c5.271,7.491,7.021,15.496,3.329,19.188
		l-2.251,2.251c1.524,5.539,1.093,10.39-1.804,13.287l-8.671,8.671c-0.002,0.002-0.003,0.003-0.005,0.005
		c-0.002,0.002-0.004,0.003-0.005,0.005l-0.162,0.162l-0.008-0.008c-1.888,1.786-4.501,2.634-7.555,2.634
		c-5.847,0-13.308-3.11-20.368-8.699l-15.13,15.131c8.276,10.712,11.303,22.698,5.961,28.041l-8.21,8.211l0,0.001c0,0,0,0,0,0
		l-0.631,0.631l-0.035-0.035c-1.838,1.489-4.264,2.199-7.058,2.199c-1.775,0-3.699-0.286-5.715-0.842l-1.295,1.295
		c-0.001,0.002-0.002,0.004-0.004,0.005c-0.002,0.001-0.004,0.003-0.005,0.004l-0.019,0.02l-0.002-0.002
		c-1.393,1.378-3.35,2.03-5.645,2.03c-3.685,0-8.242-1.682-12.739-4.746c-0.034,0.039-0.053,0.087-0.089,0.124
		c-0.485,0.485-1.159,0.716-1.929,0.716c-1.445,0-3.224-0.816-4.703-2.295c-1.685-1.684-2.503-3.752-2.244-5.278l-0.052-1.198
		l-0.205-0.681C9.686,94.885,7.66,86.21,11.624,82.203L11.621,82.2l1.325-1.325c-1.429-5.189-1.077-9.767,1.358-12.772l-0.035-0.035
		l8.842-8.843c1.93-1.93,4.65-2.846,7.833-2.845c6.259,0,14.312,3.539,21.682,9.859L67.42,51.446
		c-9.391-11.113-12.632-23.573-7.2-29.313l-0.007-0.007l0.146-0.146c0.007-0.007,0.012-0.014,0.019-0.021
		c0.007-0.007,0.014-0.012,0.021-0.019l8.656-8.657c1.929-1.929,4.647-2.843,7.829-2.843c1.766,0,3.675,0.281,5.671,0.827
		l2.039-2.039C86.014,7.808,88.015,7.134,90.359,7.134 M90.359,3.134L90.359,3.134c-3.486,0-6.458,1.13-8.594,3.267l-0.472,0.472
		c-1.524-0.287-3-0.432-4.409-0.432c-4.346,0-8.032,1.388-10.658,4.014l-8.61,8.611c-0.014,0.014-0.029,0.028-0.042,0.041
		c-0.031,0.031-0.063,0.063-0.095,0.097l-0.095,0.095c-0.108,0.108-0.208,0.22-0.3,0.336c-6.127,6.831-4.044,19.403,4.985,31.507
		l-9.733,9.733c-7.212-5.431-14.859-8.493-21.391-8.493c-4.347,0-8.033,1.389-10.662,4.017l-8.842,8.843
		c-0.287,0.287-0.522,0.607-0.703,0.948c-2.444,3.42-3.199,8.105-2.186,13.44c-5.054,5.438-3.574,15.313,3.699,24.918l0.001,0.027
		c-0.277,2.772,0.979,5.829,3.427,8.275c2.202,2.202,4.947,3.466,7.531,3.466c0.627,0,1.236-0.077,1.814-0.226
		c4.494,2.678,9.022,4.133,12.943,4.133c3.298,0,6.131-1.021,8.218-2.957c1.548,0.296,3.043,0.445,4.468,0.445
		c3.485,0,6.578-0.914,8.998-2.65c0.332-0.178,0.644-0.406,0.924-0.685l0.631-0.631c0.006-0.005,0.011-0.011,0.016-0.016
		l8.195-8.196c6.19-6.19,4.659-18.406-3.547-30.455l10.276-10.277c6.841,4.753,13.98,7.43,19.979,7.43
		c4.021,0,7.483-1.203,10.037-3.483c0.121-0.096,0.238-0.199,0.35-0.311l0.159-0.159c0.017-0.017,0.034-0.034,0.05-0.05l8.638-8.638
		c3.408-3.408,4.577-8.627,3.376-14.859l0.679-0.679c4.575-4.576,4.102-12.79-1.043-21.475l0.528-0.528
		c3.144-3.146,2.58-8.452-1.311-12.343c-2.207-2.207-4.985-3.473-7.621-3.473c-1.927,0-3.686,0.698-4.954,1.966l-0.104,0.105
		C99.96,4.989,94.794,3.134,90.359,3.134L90.359,3.134z"/>
</g>
</svg>
