<?xml version="1.0" encoding="utf-8"?>
<!-- Generator: Adobe Illustrator 19.1.0, SVG Export Plug-In . SVG Version: 6.00 Build 0)  -->
<svg version="1.1" id="Слой_3" xmlns="http://www.w3.org/2000/svg" xmlns:xlink="http://www.w3.org/1999/xlink" x="0px" y="0px"
	 viewBox="0 0 128 128" enable-background="new 0 0 128 128" xml:space="preserve" fill="#ff0042">
<g>
	<path d="M29,43.969c-0.878,1.116-1.651,2.332-2.841,3.141c-0.506,0.344-1.035,0.645-1.568,0.936l8.314,8.314
		c0.701-0.873,1.414-1.734,2.212-2.46c0.669-0.609,1.381-1.164,2.085-1.728L29,43.969z"/>
	<path d="M16.164,53.761l10.693,10.693c0.352-0.545,0.655-1.133,0.968-1.683c0.696-1.225,1.548-2.313,2.476-3.358L21,50.112
		C19.481,51.204,17.863,52.59,16.164,53.761z"/>
	<path d="M16.423,59.849c-0.795,0-1.559-0.316-2.121-0.878l-7.071-7.071c-0.563-0.563-0.879-1.326-0.879-2.122
		c0-0.795,0.316-1.559,0.878-2.121l14.142-14.143c1.125-1.126,3.118-1.126,4.243,0l7.071,7.071c1.172,1.171,1.172,3.071,0,4.242
		l-3.213,3.213l-4.242-4.242l1.092-1.092l-2.829-2.829l-9.899,9.9l2.829,2.828l1.805-1.805l4.243,4.242l-3.926,3.927
		C17.982,59.533,17.219,59.849,16.423,59.849z"/>
	<path d="M19.409,54.434c-0.512,0-1.024-0.195-1.414-0.586c-0.781-0.781-0.781-2.047,0-2.828l7.295-7.295
		c0.78-0.781,2.048-0.781,2.828,0c0.781,0.781,0.781,2.047,0,2.828l-7.295,7.295C20.433,54.238,19.921,54.434,19.409,54.434z"/>
	<path d="M59.051,40.904v-5.57h6v4.642c2.123,0.077,4.021,0.636,6,1.395v-8.897c0-1.657-1.343-3.141-3-3.141h-12
		c-1.657,0-3,1.484-3,3.141v10.552C55.031,42.287,56.994,41.509,59.051,40.904z"/>
	<path d="M97.386,43.828c-0.246-0.037-0.457-0.107-0.65-0.192l-7.375,7.375c1.657,1.167,3.223,2.438,4.663,3.822l7.718-7.718
		C100.59,45.621,99.267,44.109,97.386,43.828z"/>
	<path d="M104.214,50.301l-7.476,7.476c1.291,1.583,2.424,3.289,3.358,5.127l7.955-7.954
		C106.731,53.433,105.459,51.878,104.214,50.301z"/>
	<path d="M62.716,123.334c-23.435,0-42.5-19.065-42.5-42.5s19.065-42.5,42.5-42.5c23.435,0,42.5,19.065,42.5,42.5
		S86.151,123.334,62.716,123.334z M62.716,44.334c-20.126,0-36.5,16.374-36.5,36.5s16.374,36.5,36.5,36.5
		c20.126,0,36.5-16.374,36.5-36.5S82.842,44.334,62.716,44.334z"/>
	<path d="M108.98,59.849L108.98,59.849c-0.796,0-1.559-0.316-2.122-0.879l-3.926-3.927l4.243-4.242l1.805,1.805l2.829-2.828
		l-9.899-9.9l-2.829,2.829l1.092,1.092l-4.242,4.242l-3.213-3.213c-1.172-1.171-1.172-3.071,0-4.242l7.071-7.071
		c0.563-0.563,1.326-0.879,2.121-0.879l0,0c0.796,0,1.559,0.316,2.122,0.879l14.142,14.143c0.563,0.563,0.878,1.326,0.878,2.121
		c0,0.796-0.316,1.559-0.879,2.122l-7.071,7.071C110.538,59.533,109.775,59.849,108.98,59.849z"/>
	<path d="M74.051,35.334h-6v-6h3v-4h-18v4h3v6h-6c-1.657,0-3-1.343-3-3v-10c0-1.657,1.343-3,3-3h24c1.657,0,3,1.343,3,3v10
		C77.051,33.991,75.708,35.334,74.051,35.334z"/>
	<path d="M44.064,48.214c-0.83,0-1.656-0.343-2.249-1.014c-4.615-5.224-6.764-10.583-6.764-16.866c0-14.888,12.112-27,27-27
		c14.888,0,27,12.112,27,27c0,5.772-1.8,11.282-5.207,15.934c-0.979,1.335-2.857,1.625-4.193,0.648
		c-1.337-0.979-1.627-2.856-0.648-4.193c2.648-3.616,4.047-7.9,4.047-12.389c0-11.58-9.42-21-21-21s-21,9.42-21,21
		c0,4.799,1.623,8.775,5.26,12.894c1.097,1.242,0.98,3.138-0.262,4.234C45.479,47.966,44.77,48.214,44.064,48.214z"/>
	<circle cx="53.051" cy="53.334" r="3"/>
	<circle cx="53.051" cy="53.334" r="3"/>
	<circle cx="37.314" cy="66.098" r="3"/>
	<circle cx="33.465" cy="85.992" r="3"/>
	<circle cx="43.302" cy="103.706" r="3"/>
	<circle cx="62.225" cy="110.951" r="3"/>
	<circle cx="81.378" cy="104.339" r="3"/>
	<circle cx="91.799" cy="86.962" r="3"/>
	<circle cx="88.613" cy="66.952" r="3"/>
	<circle cx="73.31" cy="53.671" r="3"/>
	<path d="M64.603,91.324c-2.46,0-4.23-1.768-5.496-3.307c-2.689-3.27-13.598-24.371-14.833-26.767
		c-0.432-0.837-0.22-1.863,0.507-2.461c0.728-0.599,1.774-0.608,2.513-0.022c2.112,1.674,20.71,16.453,23.398,19.723
		c1.164,1.414,2.472,3.324,2.255,5.548c-0.217,2.224-1.869,3.844-3.284,5.008C67.747,90.622,66.186,91.324,64.603,91.324z
		 M52.243,67.864c4.168,7.872,8.624,15.996,9.953,17.612c1.022,1.244,1.81,1.848,2.407,1.848c0.568,0,1.416-0.46,2.52-1.368
		c1.168-0.96,1.788-1.736,1.844-2.307c0.056-0.57-0.403-1.452-1.363-2.619C66.274,79.414,59.163,73.474,52.243,67.864z"/>
	<path d="M105.994,54.434c-0.512,0-1.024-0.195-1.414-0.586l-7.295-7.295c-0.781-0.781-0.781-2.047,0-2.828
		c0.78-0.781,2.048-0.781,2.828,0l7.295,7.295c0.781,0.781,0.781,2.047,0,2.828C107.018,54.238,106.506,54.434,105.994,54.434z"/>
	<rect x="54.051" y="29.334" width="16" height="4"/>
</g>
</svg>
