<svg style="position: absolute; width: 0; height: 0; overflow: hidden;" version="1.1" xmlns="http://www.w3.org/2000/svg" xmlns:xlink="http://www.w3.org/1999/xlink">
    <defs>
        <symbol id="icon-settings" viewBox="0 0 28 32">
            <title>settings</title>
            <path d="M2 28h4v-6h-4v6zM6 4h-4v10h4v-10zM16 4h-4v4h4v-4zM0 20h8v-4h-8v4zM12 28h4v-12h-4v12zM10 14h8v-4h-8v4zM26 4h-4v12h4v-12zM20 18v4h8v-4h-8zM22 28h4v-4h-4v4z"></path>
        </symbol>
        <symbol id="icon-exit" viewBox="0 0 24 24">
            <title>exit</title>
            <path d="M18.984 3c1.078 0 2.016 0.938 2.016 2.016v13.969c0 1.078-0.938 2.016-2.016 2.016h-13.969c-1.125 0-2.016-0.938-2.016-2.016v-3.984h2.016v3.984h13.969v-13.969h-13.969v3.984h-2.016v-3.984c0-1.078 0.891-2.016 2.016-2.016h13.969zM10.078 15.609l2.578-2.625h-9.656v-1.969h9.656l-2.578-2.625 1.406-1.406 5.016 5.016-5.016 5.016z"></path>
        </symbol>
        <symbol id="icon-dashboard" viewBox="0 0 24 24">
            <title>dashboard</title>
            <path d="M12.984 3h8.016v6h-8.016v-6zM12.984 21v-9.984h8.016v9.984h-8.016zM3 21v-6h8.016v6h-8.016zM3 12.984v-9.984h8.016v9.984h-8.016z"></path>
        </symbol>
    </defs>
</svg>
