<svg style="position: absolute; width: 0; height: 0; overflow: hidden;" version="1.1"
     xmlns="http://www.w3.org/2000/svg">
    <defs>
        <symbol id="icon-power" viewBox="0 0 24 24">
            <title>power</title>
            <path d="M19.070 5.93q1.383 1.383 2.141 3.18 0.789 1.859 0.789 3.891t-0.789 3.891q-0.758 1.797-2.141 3.18t-3.18 2.141q-1.859 0.789-3.891 0.789t-3.891-0.789q-1.797-0.758-3.18-2.141t-2.141-3.18q-0.789-1.859-0.789-3.891t0.789-3.891q0.758-1.797 2.141-3.18 0.289-0.289 0.703-0.289t0.711 0.289 0.297 0.703-0.297 0.711q-1.102 1.102-1.719 2.539-0.625 1.5-0.625 3.117t0.625 3.117q0.617 1.437 1.719 2.539t2.539 1.719q1.5 0.625 3.117 0.625t3.117-0.625q1.437-0.617 2.539-1.719t1.719-2.539q0.625-1.5 0.625-3.117t-0.625-3.117q-0.617-1.437-1.719-2.539-0.297-0.297-0.297-0.711t0.297-0.703 0.711-0.289 0.703 0.289zM12 1q0.414 0 0.707 0.293t0.293 0.707v10q0 0.414-0.293 0.707t-0.707 0.293-0.707-0.293-0.293-0.707v-10q0-0.414 0.293-0.707t0.707-0.293z"></path>
        </symbol>
        <symbol id="icon-grid" viewBox="0 0 24 24">
            <title>grid</title>
            <path d="M16 1h4q1.242 0 2.121 0.879t0.879 2.121v4q0 1.242-0.879 2.121t-2.121 0.879h-4q-1.242 0-2.121-0.879t-0.879-2.121v-4q0-1.242 0.879-2.121t2.121-0.879zM4 13h4q1.242 0 2.121 0.879t0.879 2.121v4q0 1.242-0.879 2.121t-2.121 0.879h-4q-1.242 0-2.121-0.879t-0.879-2.121v-4q0-1.242 0.879-2.121t2.121-0.879zM8 15h-4q-0.414 0-0.707 0.293t-0.293 0.707v4q0 0.414 0.293 0.707t0.707 0.293h4q0.414 0 0.707-0.293t0.293-0.707v-4q0-0.414-0.293-0.707t-0.707-0.293zM4 1h4q1.242 0 2.121 0.879t0.879 2.121v4q0 1.242-0.879 2.121t-2.121 0.879h-4q-1.242 0-2.121-0.879t-0.879-2.121v-4q0-1.242 0.879-2.121t2.121-0.879zM8 3h-4q-0.414 0-0.707 0.293t-0.293 0.707v4q0 0.414 0.293 0.707t0.707 0.293h4q0.414 0 0.707-0.293t0.293-0.707v-4q0-0.414-0.293-0.707t-0.707-0.293zM16 13h4q1.242 0 2.121 0.879t0.879 2.121v4q0 1.242-0.879 2.121t-2.121 0.879h-4q-1.242 0-2.121-0.879t-0.879-2.121v-4q0-1.242 0.879-2.121t2.121-0.879zM20 15h-4q-0.414 0-0.707 0.293t-0.293 0.707v4q0 0.414 0.293 0.707t0.707 0.293h4q0.414 0 0.707-0.293t0.293-0.707v-4q0-0.414-0.293-0.707t-0.707-0.293zM20 3h-4q-0.414 0-0.707 0.293t-0.293 0.707v4q0 0.414 0.293 0.707t0.707 0.293h4q0.414 0 0.707-0.293t0.293-0.707v-4q0-0.414-0.293-0.707t-0.707-0.293z"></path>
        </symbol>
        <symbol id="icon-bar-graph-2" viewBox="0 0 24 24">
            <title>bar-graph-2</title>
            <path d="M12 1q1.242 0 2.121 0.879t0.879 2.121v16q0 1.242-0.879 2.121t-2.121 0.879-2.121-0.879-0.879-2.121v-16q0-1.242 0.879-2.121t2.121-0.879zM4 13q1.242 0 2.121 0.879t0.879 2.121v4q0 1.242-0.879 2.121t-2.121 0.879-2.121-0.879-0.879-2.121v-4q0-1.242 0.879-2.121t2.121-0.879zM4 15q-0.414 0-0.707 0.293t-0.293 0.707v4q0 0.414 0.293 0.707t0.707 0.293 0.707-0.293 0.293-0.707v-4q0-0.414-0.293-0.707t-0.707-0.293zM12 3q-0.414 0-0.707 0.293t-0.293 0.707v16q0 0.414 0.293 0.707t0.707 0.293 0.707-0.293 0.293-0.707v-16q0-0.414-0.293-0.707t-0.707-0.293zM20 7q1.242 0 2.121 0.879t0.879 2.121v10q0 1.242-0.879 2.121t-2.121 0.879-2.121-0.879-0.879-2.121v-10q0-1.242 0.879-2.121t2.121-0.879zM20 9q-0.414 0-0.707 0.293t-0.293 0.707v10q0 0.414 0.293 0.707t0.707 0.293 0.707-0.293 0.293-0.707v-10q0-0.414-0.293-0.707t-0.707-0.293z"></path>
        </symbol>
        <symbol id="icon-circle-plus" viewBox="0 0 24 24">
            <title>circle-plus</title>
            <path d="M12 1q2.242 0 4.277 0.871t3.508 2.344 2.344 3.508 0.871 4.277-0.871 4.277-2.344 3.508-3.508 2.344-4.277 0.871-4.277-0.871-3.508-2.344-2.344-3.508-0.871-4.277 0.871-4.277 2.344-3.508 3.508-2.344 4.277-0.871zM12 3q-1.828 0-3.496 0.715t-2.871 1.918-1.918 2.871-0.715 3.496 0.715 3.496 1.918 2.871 2.871 1.918 3.496 0.715 3.496-0.715 2.871-1.918 1.918-2.871 0.715-3.496-0.715-3.496-1.918-2.871-2.871-1.918-3.496-0.715zM12 7q0.414 0 0.707 0.293t0.293 0.707v3h3q0.414 0 0.707 0.293t0.293 0.707-0.293 0.707-0.707 0.293h-3v3q0 0.414-0.293 0.707t-0.707 0.293-0.707-0.293-0.293-0.707v-3h-3q-0.414 0-0.707-0.293t-0.293-0.707 0.293-0.707 0.707-0.293h3v-3q0-0.414 0.293-0.707t0.707-0.293z"></path>
        </symbol>
        <symbol id="icon-trash" viewBox="0 0 24 24">
            <title>trash</title>
            <path d="M10 1h4q1.242 0 2.121 0.879t0.879 2.121v1h4q0.414 0 0.707 0.293t0.293 0.707-0.293 0.707-0.707 0.293h-1v12q0 1.242-0.879 2.121t-2.121 0.879h-10q-1.242 0-2.121-0.879t-0.879-2.121v-12h-1q-0.414 0-0.707-0.293t-0.293-0.707 0.293-0.707 0.707-0.293h4v-1q0-1.242 0.879-2.121t2.121-0.879zM18 19v-12h-12v12q0 0.414 0.293 0.707t0.707 0.293h10q0.414 0 0.707-0.293t0.293-0.707zM14 3h-4q-0.414 0-0.707 0.293t-0.293 0.707v1h6v-1q0-0.414-0.293-0.707t-0.707-0.293z"></path>
        </symbol>
        <symbol id="icon-heart" viewBox="0 0 24 24">
            <title>heart</title>
            <path d="M17.656 2q1.633 0 3.012 0.805t2.184 2.184 0.805 3.012q0 1.172-0.449 2.277t-1.309 1.965l-9.898 9.898-9.898-9.898q-0.859-0.859-1.309-1.965t-0.449-2.277q0-1.633 0.805-3.012t2.184-2.184 3.012-0.805q1.18 0 2.277 0.445t1.965 1.313l1.414 1.414 1.414-1.414q0.859-0.859 1.965-1.309t2.277-0.449zM17.656 4q-0.781 0-1.516 0.297t-1.312 0.875l-2.828 2.828-2.828-2.828q-0.578-0.578-1.313-0.875t-1.516-0.297q-1.094 0-2.012 0.535t-1.453 1.453-0.535 2.012q0 0.781 0.297 1.516t0.875 1.313l8.484 8.484 8.484-8.484q0.578-0.578 0.875-1.313t0.297-1.516q0-1.094-0.535-2.012t-1.453-1.453-2.012-0.535z"></path>
        </symbol>
        <symbol id="icon-comment" viewBox="0 0 24 24">
            <title>speech-bubble</title>
            <path d="M4 1h16q1.242 0 2.121 0.879t0.879 2.121v11q0 1.242-0.879 2.121t-2.121 0.879h-8l-7 5v-5h-1q-1.242 0-2.121-0.879t-0.879-2.121v-11q0-1.242 0.879-2.121t2.121-0.879zM20 3h-16q-0.414 0-0.707 0.293t-0.293 0.707v11q0 0.414 0.293 0.707t0.707 0.293h3v3.117l4.359-3.117h8.641q0.414 0 0.707-0.293t0.293-0.707v-11q0-0.414-0.293-0.707t-0.707-0.293z"></path>
        </symbol>
        <symbol id="icon-head" viewBox="0 0 24 24">
            <title>head</title>
            <path d="M12 0q1.633 0 3.012 0.805t2.184 2.184 0.805 3.012v3q0 1.25-0.484 2.367t-1.352 1.945q2.281 0.359 4.055 1.059t2.777 1.652 1.004 2.008v1.969q0 1.242-0.879 2.121t-2.121 0.879h-18q-1.242 0-2.121-0.879t-0.879-2.121v-1.977q0-1.055 1.004-2.008t2.773-1.652 4.051-1.051q-0.859-0.836-1.344-1.949t-0.484-2.363v-3q0-1.633 0.805-3.012t2.184-2.184 3.012-0.805zM12 15q-2.172 0-4.191 0.348t-3.52 0.973q-0.602 0.25-1.074 0.531t-0.719 0.508-0.371 0.395-0.125 0.27v1.977q0 0.414 0.293 0.707t0.707 0.293h18q0.414 0 0.707-0.293t0.293-0.707v-1.969q0-0.102-0.125-0.27t-0.371-0.395-0.719-0.508-1.074-0.539q-1.5-0.625-3.52-0.973t-4.191-0.348zM12 2q-1.656 0-2.828 1.172t-1.172 2.828v3q0 1.656 1.172 2.828t2.828 1.172 2.828-1.172 1.172-2.828v-3q0-1.656-1.172-2.828t-2.828-1.172z"></path>
        </symbol>
    </defs>
</svg>
