<svg style="position: absolute; width: 0; height: 0; overflow: hidden;" version="1.1" xmlns="http://www.w3.org/2000/svg" xmlns:xlink="http://www.w3.org/1999/xlink">
    <defs>
        <symbol id="icon-power" viewBox="0 0 24 24">
            <title>power</title>
            <path d="M19.070 5.93q1.383 1.383 2.141 3.18 0.789 1.859 0.789 3.891t-0.789 3.891q-0.758 1.797-2.141 3.18t-3.18 2.141q-1.859 0.789-3.891 0.789t-3.891-0.789q-1.797-0.758-3.18-2.141t-2.141-3.18q-0.789-1.859-0.789-3.891t0.789-3.891q0.758-1.797 2.141-3.18 0.289-0.289 0.703-0.289t0.711 0.289 0.297 0.703-0.297 0.711q-1.102 1.102-1.719 2.539-0.625 1.5-0.625 3.117t0.625 3.117q0.617 1.437 1.719 2.539t2.539 1.719q1.5 0.625 3.117 0.625t3.117-0.625q1.437-0.617 2.539-1.719t1.719-2.539q0.625-1.5 0.625-3.117t-0.625-3.117q-0.617-1.437-1.719-2.539-0.297-0.297-0.297-0.711t0.297-0.703 0.711-0.289 0.703 0.289zM12 1q0.414 0 0.707 0.293t0.293 0.707v10q0 0.414-0.293 0.707t-0.707 0.293-0.707-0.293-0.293-0.707v-10q0-0.414 0.293-0.707t0.707-0.293z"></path>
        </symbol>
        <symbol id="icon-grid" viewBox="0 0 24 24">
            <title>grid</title>
            <path d="M16 1h4q1.242 0 2.121 0.879t0.879 2.121v4q0 1.242-0.879 2.121t-2.121 0.879h-4q-1.242 0-2.121-0.879t-0.879-2.121v-4q0-1.242 0.879-2.121t2.121-0.879zM4 13h4q1.242 0 2.121 0.879t0.879 2.121v4q0 1.242-0.879 2.121t-2.121 0.879h-4q-1.242 0-2.121-0.879t-0.879-2.121v-4q0-1.242 0.879-2.121t2.121-0.879zM8 15h-4q-0.414 0-0.707 0.293t-0.293 0.707v4q0 0.414 0.293 0.707t0.707 0.293h4q0.414 0 0.707-0.293t0.293-0.707v-4q0-0.414-0.293-0.707t-0.707-0.293zM4 1h4q1.242 0 2.121 0.879t0.879 2.121v4q0 1.242-0.879 2.121t-2.121 0.879h-4q-1.242 0-2.121-0.879t-0.879-2.121v-4q0-1.242 0.879-2.121t2.121-0.879zM8 3h-4q-0.414 0-0.707 0.293t-0.293 0.707v4q0 0.414 0.293 0.707t0.707 0.293h4q0.414 0 0.707-0.293t0.293-0.707v-4q0-0.414-0.293-0.707t-0.707-0.293zM16 13h4q1.242 0 2.121 0.879t0.879 2.121v4q0 1.242-0.879 2.121t-2.121 0.879h-4q-1.242 0-2.121-0.879t-0.879-2.121v-4q0-1.242 0.879-2.121t2.121-0.879zM20 15h-4q-0.414 0-0.707 0.293t-0.293 0.707v4q0 0.414 0.293 0.707t0.707 0.293h4q0.414 0 0.707-0.293t0.293-0.707v-4q0-0.414-0.293-0.707t-0.707-0.293zM20 3h-4q-0.414 0-0.707 0.293t-0.293 0.707v4q0 0.414 0.293 0.707t0.707 0.293h4q0.414 0 0.707-0.293t0.293-0.707v-4q0-0.414-0.293-0.707t-0.707-0.293z"></path>
        </symbol>
    </defs>
</svg>
